<?xml version="1.0" encoding="UTF-8"?>
<svg id="Layer_1" data-name="Layer 1" xmlns="http://www.w3.org/2000/svg" viewBox="0 0 259.03 121.54">
  <defs>
    <style>
      .cls-1 {
        fill: #5060ac;
      }
    </style>
  </defs>
  <g>
    <path class="cls-1" d="M255.89,50.73c2.78.07,4.16,3.4,2.25,5.41l-42.2,44.35c-1.92,2.01-5.31.8-5.52-1.98l-2.26-40.3c-.05-.81-.4-1.58-.99-2.14l-34.16-32.51c-.8-.76-1.95-1.06-3.02-.78l-12.83,3.38c-.93.21-1.56-.91-.91-1.6L179.36.3c.65-.69,1.8-.11,1.64.83l-2.74,12.98c-.23,1.09.12,2.21.92,2.98l34.16,32.51c.59.56,1.37.88,2.18.88l40.36.26Z"/>
    <circle class="cls-1" cx="214.09" cy="115.28" r="6.25"/>
  </g>
  <circle class="cls-1" cx="153.27" cy="50.42" r="6.25"/>
  <path class="cls-1" d="M35.63,71.96c-1.63-1.03-3.41-1.86-5.34-2.48-1.93-.62-3.87-1.14-5.82-1.55-1.95-.41-3.73-.81-5.34-1.21-1.61-.39-2.92-.89-3.93-1.51s-1.51-1.48-1.51-2.58c0-.73.25-1.42.76-2.07.5-.64,1.33-1.17,2.48-1.58,1.15-.41,2.66-.62,4.54-.62,2.11,0,4.29.3,6.54.9,1.54.41,3.09.98,4.66,1.71,1.19.56,2.6.02,3.1-1.19l2.4-5.84c.46-1.12-.02-2.41-1.1-2.94-1.87-.92-3.94-1.64-6.21-2.17-3.05-.71-6.16-1.07-9.33-1.07-4.73,0-8.68.71-11.84,2.13-3.17,1.42-5.53,3.3-7.09,5.65-1.56,2.34-2.34,4.94-2.34,7.78,0,2.57.49,4.71,1.48,6.4.99,1.7,2.28,3.08,3.89,4.13,1.61,1.06,3.4,1.91,5.37,2.55,1.97.64,3.91,1.16,5.82,1.55,1.9.39,3.67.8,5.3,1.24,1.63.44,2.95.96,3.96,1.58,1.01.62,1.52,1.46,1.52,2.51,0,.83-.27,1.54-.79,2.13-.53.6-1.35,1.06-2.48,1.38-1.13.32-2.65.48-4.58.48-2.8,0-5.61-.45-8.43-1.34-1.93-.61-3.7-1.33-5.31-2.17-1.19-.61-2.65-.14-3.19,1.09l-2.62,5.93c-.48,1.09-.07,2.38.98,2.94,1.95,1.04,4.3,1.93,7.04,2.67,3.65.99,7.47,1.48,11.46,1.48,4.77,0,8.74-.71,11.91-2.13,3.17-1.42,5.54-3.31,7.13-5.68,1.58-2.36,2.38-4.95,2.38-7.75,0-2.52-.51-4.62-1.52-6.3-1.01-1.68-2.33-3.03-3.96-4.06Z"/>
  <g>
    <circle class="cls-1" cx="49.5" cy="50.42" r="6.25"/>
    <rect class="cls-1" x="43.25" y="60.5" width="13.08" height="37.39" rx="2.3" ry="2.3"/>
  </g>
  <path class="cls-1" d="M92.03,62.29c-2.78-1.61-5.86-2.41-9.26-2.41s-6.14.7-8.37,2.1c-.26.16-.51.34-.75.52-.76.57-1.83.07-1.83-.87h0c0-.62-.5-1.12-1.12-1.12h-9.11c-1.27,0-2.3,1.03-2.3,2.3v46.15c0,1.27,1.03,2.3,2.3,2.3h8.49c1.27,0,2.3-1.03,2.3-2.3v-11.31c0-1.15,1.27-1.86,2.25-1.25l.02.02c2.25,1.4,4.96,2.1,8.12,2.1,3.4,0,6.48-.78,9.26-2.34,2.78-1.56,4.98-3.79,6.61-6.68,1.63-2.89,2.44-6.29,2.44-10.19s-.82-7.42-2.44-10.29c-1.63-2.87-3.83-5.11-6.61-6.71ZM86.79,84.05c-.71,1.33-1.65,2.34-2.82,3.03-1.17.69-2.49,1.03-3.96,1.03s-2.79-.34-3.96-1.03c-1.17-.69-2.11-1.7-2.82-3.03-.71-1.33-1.07-2.91-1.07-4.75,0-1.97.36-3.62,1.07-4.92.71-1.31,1.65-2.31,2.82-3,1.17-.69,2.49-1.03,3.96-1.03s2.79.34,3.96,1.03c1.17.69,2.11,1.69,2.82,3s1.07,2.95,1.07,4.92c0,1.84-.36,3.42-1.07,4.75Z"/>
  <path class="cls-1" d="M135.75,62.29c-2.78-1.61-5.86-2.41-9.26-2.41s-6.14.7-8.37,2.1c-.26.16-.51.34-.75.52-.76.57-1.83.07-1.83-.87h0c0-.62-.5-1.12-1.12-1.12h-9.11c-1.27,0-2.3,1.03-2.3,2.3v47.07c0,.76.62,1.38,1.38,1.38h10.33c.76,0,1.38-.62,1.38-1.38v-12.4c0-1.11,1.22-1.73,2.15-1.13.04.03.08.05.12.08,2.25,1.4,4.96,2.1,8.12,2.1,3.4,0,6.48-.78,9.26-2.34,2.78-1.56,4.98-3.79,6.61-6.68,1.63-2.89,2.44-6.29,2.44-10.19s-.82-7.42-2.44-10.29c-1.63-2.87-3.83-5.11-6.61-6.71ZM130.51,84.05c-.71,1.33-1.65,2.34-2.82,3.03-1.17.69-2.49,1.03-3.96,1.03s-2.79-.34-3.96-1.03c-1.17-.69-2.11-1.7-2.82-3.03-.71-1.33-1.07-2.91-1.07-4.75,0-1.97.36-3.62,1.07-4.92.71-1.31,1.65-2.31,2.82-3,1.17-.69,2.49-1.03,3.96-1.03s2.79.34,3.96,1.03c1.17.69,2.11,1.69,2.82,3s1.07,2.95,1.07,4.92c0,1.84-.36,3.42-1.07,4.75Z"/>
  <rect class="cls-1" x="146.73" y="60.5" width="13.08" height="37.39" rx="2.3" ry="2.3"/>
  <path class="cls-1" d="M200.46,67.11c-1.35-2.43-3.2-4.24-5.54-5.44-2.34-1.19-4.96-1.79-7.85-1.79-3.12,0-5.92.7-8.4,2.1-.41.23-.81.48-1.19.75-.92.65-2.18.01-2.18-1.11h0c0-.62-.5-1.12-1.12-1.12h-9.11c-1.27,0-2.3,1.03-2.3,2.3v32.8c0,1.27,1.03,2.3,2.3,2.3h8.49c1.27,0,2.3-1.03,2.3-2.3v-15.68c0-2.11.32-3.81.96-5.1s1.54-2.24,2.68-2.86c1.15-.62,2.43-.93,3.85-.93,1.84,0,3.29.61,4.37,1.82,1.08,1.22,1.62,3.16,1.62,5.82v16.91c0,1.27,1.03,2.3,2.3,2.3h8.56c1.27,0,2.3-1.03,2.3-2.3v-19.05c0-3.85-.68-7-2.03-9.43Z"/>
</svg>